<!-- Para usar este ícone no Bootstrap 5.3.3, salve como bi-br.svg -->
<svg xmlns="http://www.w3.org/2000/svg" width="16" height="16" fill="currentColor" class="bi bi-br" viewBox="0 0 16 16">
  <path fill-rule="evenodd" d="M3 2a2 2 0 0 0-2 2v8a2 2 0 0 0 2 2h10a2 2 0 0 0 2-2V4a2 2 0 0 0-2-2H3zm0 1h10a1 1 0 0 1 1 1v8a1 1 0 0 1-1 1H3a1 1 0 0 1-1-1V4a1 1 0 0 1 1-1z"/>
  <path d="M4.5 5.5h3a1 1 0 0 1 1 1v.5a1 1 0 0 1-.5.866.95.95 0 0 1 .5.834v.5a1 1 0 0 1-1 1h-3V5.5zm1 3h1.5a.5.5 0 0 0 .5-.5V7.5a.5.5 0 0 0-.5-.5H5.5v2zm0-2.5h1.5A.5.5 0 0 0 7 5.5V6a.5.5 0 0 0-.5.5H5.5v-.5z"/>
  <path d="M9.5 5.5V10h1a1 1 0 0 0 1-1V6.5a1 1 0 0 0-1-1h-1z"/>
</svg>
