<?xml version="1.0" encoding="UTF-8"?><svg id="Camada_2" xmlns="http://www.w3.org/2000/svg" viewBox="0 0 419.47 238.07"><defs><style>.cls-1{fill:#a70e13;}.cls-2{fill:#002d3a;}.cls-3{fill:#ba141a;}.cls-4{fill:#006c6d;}.cls-5{fill:#00a76d;}</style></defs><g id="Layer_1"><path class="cls-2" d="M151.41,138.95c0,31.16-22.33,56.62-54.54,56.62s-55.06-25.97-55.06-57.14H0v.52c0,51.68,40.25,93.49,96.35,93.49s96.87-42.33,96.87-94.01h-41.81v.52Z"/><polygon class="cls-1" points="100.33 56.58 72.06 28.31 100.34 .03 128.61 28.3 128.62 28.28 100.34 0 1.94 98.41 58.5 98.41 100.33 56.58"/><polygon class="cls-3" points="72.06 28.31 100.33 56.58 142.15 98.41 198.72 98.41 128.61 28.3 100.34 .03 72.06 28.31"/><path class="cls-2" d="M268.06,99.12c0-31.16,22.33-56.62,54.54-56.62s55.06,25.97,55.06,57.14h41.81v-.52c0-51.68-40.25-93.49-96.35-93.49s-96.87,42.33-96.87,94.01h41.81v-.52Z"/><polygon class="cls-4" points="319.14 181.49 347.41 209.76 319.13 238.04 290.86 209.77 290.84 209.79 319.12 238.07 417.53 139.66 360.97 139.66 319.14 181.49"/><polygon class="cls-5" points="347.41 209.76 319.14 181.49 277.31 139.66 220.75 139.66 290.86 209.77 319.13 238.04 347.41 209.76"/><rect class="cls-2" x="82.81" y="104.04" width="13.57" height="13.57"/><rect class="cls-2" x="100.63" y="104.04" width="13.57" height="13.57"/><rect class="cls-2" x="82.81" y="123.14" width="13.57" height="13.57"/><rect class="cls-2" x="100.63" y="123.14" width="13.57" height="13.57"/><circle class="cls-2" cx="322.6" cy="104.04" r="21.63"/></g></svg>